<svg width="58" height="42" viewBox="0 0 58 42" fill="none" xmlns="http://www.w3.org/2000/svg">
<path d="M49.1315 3.51749C45.3771 1.87425 41.3626 0.68001 37.1657 0C36.6502 0.871749 36.048 2.04427 35.6329 2.97701C31.1714 2.34936 26.7509 2.34936 22.3715 2.97701C21.9564 2.04427 21.3405 0.871749 20.8205 0C16.619 0.68001 12.5999 1.87864 8.84547 3.52619C1.27272 14.2311 -0.780127 24.67 0.246299 34.9608C5.26894 38.4695 10.1365 40.6009 14.9219 41.9957C16.1034 40.4745 17.1572 38.8574 18.065 37.1532C16.3361 36.5386 14.6801 35.7802 13.1154 34.8998C13.5305 34.6121 13.9366 34.3113 14.3289 34.0019C23.8723 38.1775 34.2415 38.1775 43.671 34.0019C44.0678 34.3113 44.4738 34.6121 44.8844 34.8998C43.3151 35.7846 41.6546 36.543 39.9256 37.1576C40.8335 38.8574 41.8827 40.4789 43.0688 42C47.8588 40.6052 52.7308 38.4739 57.7535 34.9608C58.9579 23.0312 55.6961 12.6881 49.1315 3.51749ZM19.3652 28.6321C16.5003 28.6321 14.1509 26.1302 14.1509 23.0835C14.1509 20.0368 16.4502 17.5306 19.3652 17.5306C22.2803 17.5306 24.6296 20.0324 24.5794 23.0835C24.584 26.1302 22.2803 28.6321 19.3652 28.6321ZM38.6346 28.6321C35.7698 28.6321 33.4204 26.1302 33.4204 23.0835C33.4204 20.0368 35.7195 17.5306 38.6346 17.5306C41.5496 17.5306 43.8991 20.0324 43.8489 23.0835C43.8489 26.1302 41.5496 28.6321 38.6346 28.6321Z" fill="white"/>
</svg>
