<svg width="238" height="309" viewBox="0 0 238 309" fill="none" xmlns="http://www.w3.org/2000/svg">
<path d="M119 45L93.0192 90H144.981L119 45ZM123.5 256L123.5 85.5H114.5L114.5 256H123.5Z" fill="white"/>
<line x1="39.9684" y1="155" x2="197.968" y2="154" stroke="white" stroke-width="10"/>
<path d="M130.136 33H122L115.412 23.424C115.292 23.256 115.196 23.004 115.124 22.668C115.052 22.332 115.004 21.888 114.98 21.336H114.8V33H106.16V6H114.296L120.884 15.576C121.004 15.744 121.1 15.996 121.172 16.332C121.244 16.668 121.292 17.112 121.316 17.664H121.496V6H130.136V33Z" fill="#FF004D"/>
<path d="M107.08 296.532L108.304 289.404C110.944 290.052 113.332 290.376 115.468 290.376C116.548 290.376 117.496 290.364 118.312 290.34C119.152 290.292 119.896 290.22 120.544 290.124V287.964L116.656 287.64C114.904 287.472 113.44 287.184 112.264 286.776C111.088 286.368 110.14 285.816 109.42 285.12C108.724 284.4 108.22 283.548 107.908 282.564C107.62 281.556 107.476 280.38 107.476 279.036C107.476 277.188 107.668 275.652 108.052 274.428C108.436 273.18 109.048 272.184 109.888 271.44C110.728 270.672 111.808 270.132 113.128 269.82C114.472 269.508 116.104 269.352 118.024 269.352C121.84 269.352 125.296 269.712 128.392 270.432L127.312 277.344C124.624 276.912 122.476 276.696 120.868 276.696C119.26 276.696 117.892 276.768 116.764 276.912V279.036L119.86 279.324C121.756 279.516 123.34 279.84 124.612 280.296C125.884 280.728 126.904 281.304 127.672 282.024C128.464 282.744 129.016 283.596 129.328 284.58C129.664 285.564 129.832 286.692 129.832 287.964C129.832 289.788 129.592 291.324 129.112 292.572C128.632 293.82 128.056 294.768 127.384 295.416C126.832 295.944 126.148 296.364 125.332 296.676C124.516 296.964 123.652 297.18 122.74 297.324C121.828 297.468 120.904 297.552 119.968 297.576C119.056 297.624 118.228 297.648 117.484 297.648C115.612 297.648 113.812 297.552 112.084 297.36C110.356 297.168 108.688 296.892 107.08 296.532Z" fill="white"/>
<path d="M234.44 152.548H225.8V148.912H235.088L236.168 142H217.16V169H236.384V162.088H225.8V158.812H234.44V152.548Z" fill="white"/>
<path d="M24.372 157.084H24.12L21.024 142H14.436L11.304 157.084H11.052L9.036 142H0L4.248 169H15.516L17.46 159.064H17.964L19.944 169H31.248L35.46 142H26.424L24.372 157.084Z" fill="white"/>
</svg>
