<svg width="671" height="661" viewBox="0 0 671 661" fill="none" xmlns="http://www.w3.org/2000/svg">
<path d="M622.393 442.202C515.158 643.474 265.065 719.627 63.7933 612.393C-137.478 505.158 -213.631 254.993 -106.397 53.7933C0.837272 -147.478 251.003 -223.631 452.202 -116.397C653.474 -9.16273 729.627 240.931 622.393 442.202Z" fill="url(#paint0_radial)"/>
<path opacity="0.4" d="M149.324 -150.432C279.13 -182.018 421.628 -141.49 515.017 -33.5343C647.924 120.214 631.049 352.639 477.229 485.546C323.481 618.453 91.0554 601.579 -41.8517 447.758C-173.605 295.308 -158.1 65.6953 -7.95789 -67.7887C-9.32807 -66.6349 -10.6982 -65.5532 -11.9963 -64.3993C-184.566 84.7336 -203.533 345.5 -54.3996 517.998C94.7332 690.496 355.499 709.462 527.997 560.401C700.495 411.268 719.461 150.502 570.401 -21.996C463.022 -146.249 297.88 -190.816 149.324 -150.432Z" fill="url(#paint1_radial)"/>
<path opacity="0.3" d="M473.118 -3.89611C568.453 126.054 530.16 316.22 387.518 420.858C244.875 525.497 51.9689 504.944 -43.3666 374.994C-138.702 245.043 -100.337 54.8772 42.3055 -49.7609C184.876 -154.399 377.782 -133.846 473.118 -3.89611Z" fill="url(#paint2_radial)"/>
<path opacity="0.5" d="M301.774 -84.3037C359.826 -17.2372 330.403 103.266 236.149 184.684C141.896 266.173 18.5077 277.783 -39.5445 210.645C-97.5246 143.506 -68.1739 23.0748 26.0798 -58.3425C120.406 -139.76 243.794 -151.37 301.774 -84.3037Z" fill="url(#paint3_radial)"/>
<path opacity="0.4" d="M-6.37174 460.089C-0.891032 439.681 40.719 439.608 75.5504 465.209C110.382 490.81 99.1318 527.732 75.5504 533.862C52.041 540.064 -20.7225 513.382 -6.37174 460.089Z" fill="#D3D3D3"/>
<path opacity="0.4" d="M377.855 544.463C374.393 526.146 393.576 502.781 424.296 495.93C455.017 489.079 483.719 499.319 488.55 527.372C493.382 555.352 459.632 582.035 433.094 574.535C406.556 567.035 381.965 566.314 377.855 544.463Z" fill="#D3D3D3"/>
<path opacity="0.4" d="M75.2618 575.833C79.5887 560.472 113.555 571.145 113.843 591.986C114.204 612.755 70.5023 592.78 75.2618 575.833Z" fill="#D3D3D3"/>
<path opacity="0.4" d="M176.222 582.035C182.713 589.318 202.328 596.89 206.438 575.833C210.549 554.703 155.598 558.958 176.222 582.035Z" fill="#D3D3D3"/>
<path opacity="0.4" d="M322.543 610.015C337.182 611.746 357.734 612.611 360.763 592.924C363.864 573.237 319.802 574.391 310.211 584.631C300.692 594.943 309.562 608.501 322.543 610.015Z" fill="#D3D3D3"/>
<path opacity="0.4" d="M535.641 151.655C545.16 159.155 573.934 161.246 578.693 135.285C583.453 109.324 551.362 97.7133 535.641 103.194C519.992 108.675 506.29 128.434 535.641 151.655Z" fill="#D3D3D3"/>
<path opacity="0.4" d="M488.983 20.5508C499.584 29.9257 539.319 34.9016 548.766 17.8105C558.213 0.71934 533.189 -22.9342 500.81 -25.2419C468.43 -27.5496 451.195 -12.9103 488.983 20.5508Z" fill="#D3D3D3"/>
<path opacity="0.4" d="M-8.24677 138.746C-11.6361 129.732 2.85885 131.896 3.50788 138.746C4.22903 145.525 -5.65065 145.525 -8.24677 138.746Z" fill="#D3D3D3"/>
<path opacity="0.4" d="M271.846 639.438C279.13 643.188 286.197 636.409 283.601 628.188C281.077 619.967 256.991 631.722 271.846 639.438Z" fill="#D3D3D3"/>
<path opacity="0.4" d="M238.024 636.337C242.856 631.072 229.803 628.981 224.683 632.947C219.563 636.842 231.895 642.971 238.024 636.337Z" fill="#D3D3D3"/>
<path opacity="0.4" d="M199.083 618.38C204.852 622.13 209.323 619.895 209.828 614.775C210.332 609.727 188.842 611.746 199.083 618.38Z" fill="#D3D3D3"/>
<path opacity="0.4" d="M254.899 510.858C253.529 507.54 268.313 505.737 267.014 510.858C265.644 515.978 257.495 516.987 254.899 510.858Z" fill="#D3D3D3"/>
<path opacity="0.4" d="M488.983 324.874C489.055 317.23 501.315 317.735 501.819 324.874C502.324 332.014 488.911 332.518 488.983 324.874Z" fill="#D3D3D3"/>
<path opacity="0.4" d="M555.184 202.424C554.679 194.779 569.535 194.203 570.04 202.424C570.545 210.573 555.689 210.068 555.184 202.424Z" fill="#D3D3D3"/>
<defs>
<radialGradient id="paint0_radial" cx="0" cy="0" r="1" gradientUnits="userSpaceOnUse" gradientTransform="translate(216.975 188.759) scale(474.634)">
<stop stop-color="white"/>
<stop offset="0.6719" stop-color="#EDEDED"/>
<stop offset="1" stop-color="#E2E2E2"/>
</radialGradient>
<radialGradient id="paint1_radial" cx="0" cy="0" r="1" gradientUnits="userSpaceOnUse" gradientTransform="translate(258.001 248.005) scale(412.928 412.928)">
<stop stop-color="white"/>
<stop offset="0.6719" stop-color="#EDEDED"/>
<stop offset="1" stop-color="#E2E2E2"/>
</radialGradient>
<radialGradient id="paint2_radial" cx="0" cy="0" r="1" gradientUnits="userSpaceOnUse" gradientTransform="translate(214.887 185.558) rotate(4.57712) scale(306.398)">
<stop stop-color="white"/>
<stop offset="0.6719" stop-color="#EDEDED"/>
<stop offset="1" stop-color="#E2E2E2"/>
</radialGradient>
<radialGradient id="paint3_radial" cx="0" cy="0" r="1" gradientUnits="userSpaceOnUse" gradientTransform="translate(131.177 63.2051) scale(195.81)">
<stop stop-color="white"/>
<stop offset="0.6719" stop-color="#EDEDED"/>
<stop offset="1" stop-color="#E2E2E2"/>
</radialGradient>
</defs>
</svg>
